inDegrees=yes
name=ik_MT_01200627-005-000_orientations_updatedTime
DataType=double
version=3
OpenSimVersion=4.5-2024-07-10-f38669b70
endheader
time	pelvis_tilt	pelvis_list	pelvis_rotation	pelvis_tx	pelvis_ty	pelvis_tz	hip_flexion_r	hip_adduction_r	hip_rotation_r	knee_angle_r	knee_angle_r_beta	ankle_angle_r	subtalar_angle_r	mtp_angle_r	hip_flexion_l	hip_adduction_l	hip_rotation_l	knee_angle_l	knee_angle_l_beta	ankle_angle_l	subtalar_angle_l	mtp_angle_l	lumbar_extension	lumbar_bending	lumbar_rotation	arm_flex_r	arm_add_r	arm_rot_r	elbow_flex_r	pro_sup_r	wrist_flex_r	wrist_dev_r	arm_flex_l	arm_add_l	arm_rot_l	elbow_flex_l	pro_sup_l	wrist_flex_l	wrist_dev_l
1748432634.664544	0.003382605832789196	0.00108939558168801	-171.7567029886439	0	0.9399999943917833	0	79.99999999525214	-7.000000001125469	0	79.99999999792263	1.396263401559207	0	0	0	79.99999999525214	-7.000000004501878	0	79.99999999802388	1.396263401560974	0	0	0	0.003709666651032104	-0.000711680628072938	-0.002186842908395851	-0.3267810816954432	-0.08809352612475665	-0.3939549855586902	0.6795091251827706	0.5928171157568276	-0.3221031827295833	-0.08547530404164017	-0.3281425449568606	-0.09165203446933755	-0.3960691498637192	0.6853061180475511	0.5933256829172322	-0.3276815805375866	-0.08640894467901693
1748432634.674544	0.007822109789458871	0.003667990190990769	-171.7562047632688	0	0.9399999943917833	0	79.99999999525214	-7.000000001125469	0	79.99999999792263	1.396263401559207	0	0	0	79.99999999525214	-7.000000004501878	0	79.99999999802388	1.396263401560974	0	0	0	0.007336471965697094	-0.002823059827009817	0.01225671981253554	-0.3400941601571367	-0.1004775078524304	-0.3807729471172637	0.6905316437844975	0.6066133549872387	-0.3165993767525626	-0.1012161969136877	-0.3557178247096116	-0.1029599218749862	-0.415146319700917	0.6828848470690578	0.5925176659134691	-0.3285528608615837	-0.08768855734365956
1748432634.684544	0.03926593615837191	0.01160619869266596	-171.747638099007	0	0.9399999943917833	0	79.99999999525214	-7.000000001125469	0	79.99999999792263	1.396263401559207	0	0	0	79.99999999525214	-7.000000004501878	0	79.99999999802388	1.396263401560974	0	0	0	0.07159375673054122	-0.01342407165193196	0.0150181720956314	-0.4009232838719539	-0.1122414360322558	-0.3648152967241994	0.6929998108211984	0.6289726460197266	-0.3058750432026885	-0.107219080356354	-0.4216321049706884	-0.1233940252253218	-0.4314994216483459	0.6711381512311796	0.5938040225842111	-0.3130811997295125	-0.08008327061901224
1748432634.694544	0.02279323038625807	0.007816265756586295	-171.7494243515285	0	0.9399999943917833	0	79.99999999525214	-7.000000001125469	0	79.99999999792263	1.396263401559207	0	0	0	79.99999999525214	-7.000000004501878	0	79.99999999802388	1.396263401560974	0	0	0	-0.009773852001567492	-0.01845540678794579	0.04111719695360682	-0.3327560112665492	-0.1121585203791433	-0.3439426474343953	0.6975125389567548	0.6462230491599819	-0.3318005624320206	-0.1333644950856829	-0.3708997575954596	-0.1254559909437249	-0.4534965548169657	0.6756762459703913	0.6136523450514496	-0.3355823496428528	-0.09573297245171555
1748432634.704544	0.02946075912905978	0.006378466829882349	-171.754629521478	0	0.9399999943917833	0	79.99999999525214	-7.000000001125469	0	79.99999999792263	1.396263401559207	0	0	0	79.99999999525214	-7.000000004501878	0	79.99999999802388	1.396263401560974	0	0	0	-0.02101274591745045	-0.02566490794026252	0.04735433019638478	-0.3325045354697698	-0.1174598301006398	-0.3161641829218855	0.7215744238175543	0.6855631037344295	-0.3699238063803248	-0.1724909196204813	-0.3677030198295602	-0.1252404904877017	-0.4898137490773845	0.666459555630765	0.6191728066993747	-0.3285383968702327	-0.1064131383857822
1748432634.714544	0.05926628577063565	0.01539896755415255	-171.7036929167045	0	0.9399999943917833	0	79.99999999525214	-7.000000001125469	0	79.99999999792263	1.396263401559207	0	0	0	79.99999999525214	-7.000000004501878	0	79.99999999802388	1.396263401560974	0	0	0	0.02091061260445791	-0.02680074277907404	0.02554390546008851	-0.3506877700404267	-0.1275261900563281	-0.3236744263606774	0.7166516076822036	0.70586266425625	-0.3808420169814571	-0.1716675993728934	-0.4138249154205342	-0.1415370632632414	-0.4990315944986676	0.7032943849739942	0.6374418917301039	-0.3624314996829532	-0.1067844515242461
1748432634.724544	0.04353216261530873	0.015413171224624	-171.7469870408417	0	0.9399999943917833	0	79.99999999525214	-7.000000001125469	0	79.99999999792263	1.396263401559207	0	0	0	79.99999999525214	-7.000000004501878	0	79.99999999802388	1.396263401560974	0	0	0	-0.01566363346900034	-0.03498105437773891	0.04203687376054466	-0.3241425501099088	-0.1220947047923808	-0.2610060453740704	0.7146929532387382	0.7532321971243441	-0.4207255021106582	-0.2261194602670338	-0.4009179455988231	-0.1376279898654955	-0.5325993219351594	0.6900132092400267	0.6144305013206814	-0.3492062012939003	-0.1322669580734392
1748432634.734544	0.06378993725827305	0.01882426251516361	-171.7336326701407	0	0.9399999943917833	0	79.99999999525214	-7.000000001125469	0	79.99999999792263	1.396263401559207	0	0	0	79.99999999525214	-7.000000004501878	0	79.99999999802388	1.396263401560974	0	0	0	-0.003393694785912244	-0.03736818635901228	0.04903213187472034	-0.3385449595681779	-0.1238373415154668	-0.2639715370100779	0.7325998052709352	0.7795418230312178	-0.4338369615389268	-0.2554711692283944	-0.4261190009699989	-0.1392188921844271	-0.5229014500884922	0.6828138486151472	0.6234926196205458	-0.3187893535106344	-0.1372205300031514
1748432634.744544	0.08853804663986695	0.03037651908502563	-171.7035826994731	0	0.9399999943917833	0	79.99999999525214	-7.000000001125469	0	79.99999999792263	1.396263401559207	0	0	0	79.99999999525214	-7.000000004501878	0	79.99999999802388	1.396263401560974	0	0	0	0.0244539687487876	-0.03666181065988274	0.03519960485938364	-0.3330329801757457	-0.1143666382248576	-0.2656098300302318	0.7435538918890289	0.817563331284232	-0.5051387857475966	-0.2829682472014565	-0.4444154472272976	-0.1416905824266479	-0.5222413424936354	0.7206226542783539	0.641268585862247	-0.3544492308710798	-0.1560238581535469
1748432634.754544	0.06510172310286431	0.01915710110653172	-171.7689208203325	0	0.9399999943917833	0	79.99999999525214	-7.000000001125469	0	79.99999999792263	1.396263401559207	0	0	0	79.99999999525214	-7.000000004501878	0	79.99999999802388	1.396263401560974	0	0	0	-0.01651588145200839	-0.0466631970559161	0.07228589790353876	-0.3096789652330781	-0.1177820506896131	-0.2311106391411806	0.753312549903619	0.8813083189367787	-0.5684255557406289	-0.3226604054690836	-0.446006779154537	-0.1342921759809548	-0.5400050528407779	0.7101048330388329	0.6260839723392424	-0.3486542909992372	-0.1658087182075045
